<?xml version="1.0" encoding="UTF-8"?>
<!DOCTYPE svg PUBLIC "-//W3C//DTD SVG 1.1//EN" "http://www.w3.org/Graphics/SVG/1.1/DTD/svg11.dtd">
<svg xmlns="http://www.w3.org/2000/svg" version="1.1" width="1200px" height="1200px" style="shape-rendering:geometricPrecision; text-rendering:geometricPrecision; image-rendering:optimizeQuality; fill-rule:evenodd; clip-rule:evenodd" xmlns:xlink="http://www.w3.org/1999/xlink">
<g><path style="opacity:1" fill="#efbf63" d="M 907.5,179.5 C 907.973,180.906 908.973,181.573 910.5,181.5C 911.167,181.5 911.5,181.833 911.5,182.5C 911.973,183.906 912.973,184.573 914.5,184.5C 915.167,184.5 915.5,184.833 915.5,185.5C 915.973,186.906 916.973,187.573 918.5,187.5C 920.909,188.701 922.909,190.367 924.5,192.5C 924.973,193.906 925.973,194.573 927.5,194.5C 928.833,195.167 929.833,196.167 930.5,197.5C 930.973,198.906 931.973,199.573 933.5,199.5C 934.833,200.167 935.833,201.167 936.5,202.5C 936.973,203.906 937.973,204.573 939.5,204.5C 941.167,205.5 942.5,206.833 943.5,208.5C 944.262,210.262 945.596,211.262 947.5,211.5C 949.833,213.167 951.833,215.167 953.5,217.5C 955.9,220.903 958.9,223.57 962.5,225.5C 966.5,228.833 970.167,232.5 973.5,236.5C 976.101,240.771 979.434,244.437 983.5,247.5C 984.833,248.167 985.833,249.167 986.5,250.5C 987.757,253.427 989.757,255.761 992.5,257.5C 993.5,257.833 994.167,258.5 994.5,259.5C 995.08,261.749 996.413,263.415 998.5,264.5C 999.167,264.5 999.5,264.833 999.5,265.5C 1000.08,267.749 1001.41,269.415 1003.5,270.5C 1004.17,270.5 1004.5,270.833 1004.5,271.5C 1005.08,273.749 1006.41,275.415 1008.5,276.5C 1008.74,278.404 1009.74,279.738 1011.5,280.5C 1015.02,286.2 1019.02,291.533 1023.5,296.5C 1025.06,300.392 1027.4,303.725 1030.5,306.5C 1119.27,443.809 1141.77,591.476 1098,749.5C 1054,887.141 968.833,990.641 842.5,1060C 705.503,1129.08 564.503,1138.41 419.5,1088C 271.333,1030.5 168.5,927.667 111,779.5C 60.5904,634.497 69.9238,493.497 139,356.5C 148.604,339.613 158.438,322.947 168.5,306.5C 171.605,303.725 173.938,300.392 175.5,296.5C 179.984,291.533 183.984,286.2 187.5,280.5C 189.262,279.738 190.262,278.404 190.5,276.5C 192.587,275.415 193.92,273.749 194.5,271.5C 194.5,270.833 194.833,270.5 195.5,270.5C 197.587,269.415 198.92,267.749 199.5,265.5C 199.5,264.833 199.833,264.5 200.5,264.5C 202.587,263.415 203.92,261.749 204.5,259.5C 204.833,258.5 205.5,257.833 206.5,257.5C 209.243,255.761 211.243,253.427 212.5,250.5C 213.167,249.167 214.167,248.167 215.5,247.5C 219.566,244.437 222.899,240.771 225.5,236.5C 227.5,233.833 229.833,231.5 232.5,229.5C 234.749,228.92 236.415,227.587 237.5,225.5C 240.5,223.167 243.167,220.5 245.5,217.5C 246.833,215.5 248.5,213.833 250.5,212.5C 252.749,211.92 254.415,210.587 255.5,208.5C 257.749,207.92 259.415,206.587 260.5,204.5C 261.5,204.167 262.167,203.5 262.5,202.5C 263.167,201.167 264.167,200.167 265.5,199.5C 267.027,199.573 268.027,198.906 268.5,197.5C 269.167,196.167 270.167,195.167 271.5,194.5C 273.027,194.573 274.027,193.906 274.5,192.5C 276.404,192.262 277.738,191.262 278.5,189.5C 278.833,188.5 279.5,187.833 280.5,187.5C 282.027,187.573 283.027,186.906 283.5,185.5C 283.5,184.833 283.833,184.5 284.5,184.5C 286.027,184.573 287.027,183.906 287.5,182.5C 287.5,181.833 287.833,181.5 288.5,181.5C 290.027,181.573 291.027,180.906 291.5,179.5C 293.027,179.573 294.027,178.906 294.5,177.5C 296.404,177.262 297.738,176.262 298.5,174.5C 300.027,174.573 301.027,173.906 301.5,172.5C 303.632,172.446 304.965,171.446 305.5,169.5C 307.027,169.573 308.027,168.906 308.5,167.5C 310.027,167.573 311.027,166.906 311.5,165.5C 313.027,165.573 314.027,164.906 314.5,163.5C 315.899,162.11 317.566,161.11 319.5,160.5C 321.027,160.573 322.027,159.906 322.5,158.5C 324.027,158.573 325.027,157.906 325.5,156.5C 325.842,155.662 326.508,155.328 327.5,155.5C 329.027,155.573 330.027,154.906 330.5,153.5C 330.842,152.662 331.508,152.328 332.5,152.5C 334.027,152.573 335.027,151.906 335.5,150.5C 338.678,147.742 342.345,145.742 346.5,144.5C 348.027,144.573 349.027,143.906 349.5,142.5C 464.435,81.2476 585.768,64.0809 713.5,91C 784.747,106.802 849.413,136.302 907.5,179.5 Z"/></g>
<g><path style="opacity:0.184" fill="#61502d" d="M 349.5,142.5 C 349.027,143.906 348.027,144.573 346.5,144.5C 346.973,143.094 347.973,142.427 349.5,142.5 Z"/></g>
<g><path style="opacity:0.169" fill="#63502e" d="M 335.5,150.5 C 335.027,151.906 334.027,152.573 332.5,152.5C 332.973,151.094 333.973,150.427 335.5,150.5 Z"/></g>
<g><path style="opacity:0.169" fill="#604e2c" d="M 330.5,153.5 C 330.027,154.906 329.027,155.573 327.5,155.5C 327.973,154.094 328.973,153.427 330.5,153.5 Z"/></g>
<g><path style="opacity:0.098" fill="#5e4e2b" d="M 325.5,156.5 C 325.027,157.906 324.027,158.573 322.5,158.5C 322.973,157.094 323.973,156.427 325.5,156.5 Z"/></g>
<g><path style="opacity:0.192" fill="#644f2e" d="M 322.5,158.5 C 322.027,159.906 321.027,160.573 319.5,160.5C 319.973,159.094 320.973,158.427 322.5,158.5 Z"/></g>
<g><path style="opacity:0.051" fill="#5b4b2d" d="M 314.5,163.5 C 314.027,164.906 313.027,165.573 311.5,165.5C 311.973,164.094 312.973,163.427 314.5,163.5 Z"/></g>
<g><path style="opacity:0.055" fill="#5c4d2b" d="M 311.5,165.5 C 311.027,166.906 310.027,167.573 308.5,167.5C 308.973,166.094 309.973,165.427 311.5,165.5 Z"/></g>
<g><path style="opacity:0.035" fill="#5f4828" d="M 308.5,167.5 C 308.027,168.906 307.027,169.573 305.5,169.5C 305.973,168.094 306.973,167.427 308.5,167.5 Z"/></g>
<g><path style="opacity:0.247" fill="#6f5932" d="M 305.5,169.5 C 304.965,171.446 303.632,172.446 301.5,172.5C 302.436,171.026 303.77,170.026 305.5,169.5 Z"/></g>
<g><path style="opacity:0.165" fill="#634f2d" d="M 301.5,172.5 C 301.027,173.906 300.027,174.573 298.5,174.5C 298.973,173.094 299.973,172.427 301.5,172.5 Z"/></g>
<g><path style="opacity:0.063" fill="#6b5632" d="M 298.5,174.5 C 297.738,176.262 296.404,177.262 294.5,177.5C 295.262,175.738 296.596,174.738 298.5,174.5 Z"/></g>
<g><path style="opacity:0.157" fill="#604e2d" d="M 294.5,177.5 C 294.027,178.906 293.027,179.573 291.5,179.5C 291.973,178.094 292.973,177.427 294.5,177.5 Z"/></g>
<g><path style="opacity:0.004" fill="#000000" d="M 291.5,179.5 C 291.027,180.906 290.027,181.573 288.5,181.5C 288.973,180.094 289.973,179.427 291.5,179.5 Z"/></g>
<g><path style="opacity:0.004" fill="#000000" d="M 907.5,179.5 C 909.027,179.427 910.027,180.094 910.5,181.5C 908.973,181.573 907.973,180.906 907.5,179.5 Z"/></g>
<g><path style="opacity:0.004" fill="#000000" d="M 287.5,182.5 C 287.027,183.906 286.027,184.573 284.5,184.5C 284.973,183.094 285.973,182.427 287.5,182.5 Z"/></g>
<g><path style="opacity:0.004" fill="#000000" d="M 911.5,182.5 C 913.027,182.427 914.027,183.094 914.5,184.5C 912.973,184.573 911.973,183.906 911.5,182.5 Z"/></g>
<g><path style="opacity:0.004" fill="#000000" d="M 283.5,185.5 C 283.027,186.906 282.027,187.573 280.5,187.5C 280.973,186.094 281.973,185.427 283.5,185.5 Z"/></g>
<g><path style="opacity:0.004" fill="#000000" d="M 915.5,185.5 C 917.027,185.427 918.027,186.094 918.5,187.5C 916.973,187.573 915.973,186.906 915.5,185.5 Z"/></g>
<g><path style="opacity:0.043" fill="#6e5831" d="M 278.5,189.5 C 277.738,191.262 276.404,192.262 274.5,192.5C 275.262,190.738 276.596,189.738 278.5,189.5 Z"/></g>
<g><path style="opacity:0.004" fill="#000000" d="M 274.5,192.5 C 274.027,193.906 273.027,194.573 271.5,194.5C 271.973,193.094 272.973,192.427 274.5,192.5 Z"/></g>
<g><path style="opacity:0.004" fill="#000000" d="M 924.5,192.5 C 926.027,192.427 927.027,193.094 927.5,194.5C 925.973,194.573 924.973,193.906 924.5,192.5 Z"/></g>
<g><path style="opacity:0.004" fill="#000000" d="M 268.5,197.5 C 268.027,198.906 267.027,199.573 265.5,199.5C 265.973,198.094 266.973,197.427 268.5,197.5 Z"/></g>
<g><path style="opacity:0.004" fill="#000000" d="M 930.5,197.5 C 932.027,197.427 933.027,198.094 933.5,199.5C 931.973,199.573 930.973,198.906 930.5,197.5 Z"/></g>
<g><path style="opacity:0.004" fill="#000000" d="M 262.5,202.5 C 262.167,203.5 261.5,204.167 260.5,204.5C 260.167,204.5 259.833,204.5 259.5,204.5C 259.973,203.094 260.973,202.427 262.5,202.5 Z"/></g>
<g><path style="opacity:0.004" fill="#000000" d="M 936.5,202.5 C 938.027,202.427 939.027,203.094 939.5,204.5C 937.973,204.573 936.973,203.906 936.5,202.5 Z"/></g>
<g><path style="opacity:0.333" fill="#957641" d="M 259.5,204.5 C 259.833,204.5 260.167,204.5 260.5,204.5C 259.415,206.587 257.749,207.92 255.5,208.5C 256.5,206.833 257.833,205.5 259.5,204.5 Z"/></g>
<g><path style="opacity:0.004" fill="#1b1110" d="M 255.5,208.5 C 254.415,210.587 252.749,211.92 250.5,212.5C 251.585,210.413 253.251,209.08 255.5,208.5 Z"/></g>
<g><path style="opacity:0.004" fill="#000000" d="M 943.5,208.5 C 945.404,208.738 946.738,209.738 947.5,211.5C 945.596,211.262 944.262,210.262 943.5,208.5 Z"/></g>
<g><path style="opacity:0.004" fill="#000000" d="M 245.5,217.5 C 243.167,220.5 240.5,223.167 237.5,225.5C 237.167,225.5 236.833,225.5 236.5,225.5C 238.9,222.097 241.9,219.43 245.5,217.5 Z"/></g>
<g><path style="opacity:0.004" fill="#000000" d="M 953.5,217.5 C 957.1,219.43 960.1,222.097 962.5,225.5C 958.9,223.57 955.9,220.903 953.5,217.5 Z"/></g>
<g><path style="opacity:0.063" fill="#886d3d" d="M 236.5,225.5 C 236.833,225.5 237.167,225.5 237.5,225.5C 236.415,227.587 234.749,228.92 232.5,229.5C 233.5,227.833 234.833,226.5 236.5,225.5 Z"/></g>
<g><path style="opacity:0.004" fill="#000000" d="M 225.5,236.5 C 222.899,240.771 219.566,244.437 215.5,247.5C 218.101,243.229 221.434,239.563 225.5,236.5 Z"/></g>
<g><path style="opacity:0.004" fill="#000000" d="M 973.5,236.5 C 977.566,239.563 980.899,243.229 983.5,247.5C 979.434,244.437 976.101,240.771 973.5,236.5 Z"/></g>
<g><path style="opacity:0.004" fill="#120a09" d="M 212.5,250.5 C 211.243,253.427 209.243,255.761 206.5,257.5C 207.757,254.573 209.757,252.239 212.5,250.5 Z"/></g>
<g><path style="opacity:0.004" fill="#120a09" d="M 986.5,250.5 C 989.243,252.239 991.243,254.573 992.5,257.5C 989.757,255.761 987.757,253.427 986.5,250.5 Z"/></g>
<g><path style="opacity:1" fill="#010000" d="M 487.5,255.5 C 547.036,252.165 589.536,277.165 615,330.5C 618.451,340.636 621.117,350.97 623,361.5C 623.5,390.165 623.667,418.831 623.5,447.5C 650.167,447.5 676.833,447.5 703.5,447.5C 703.333,420.165 703.5,392.831 704,365.5C 708.959,333.563 725.792,310.397 754.5,296C 766.304,274.266 783.971,267.266 807.5,275C 826.395,284.957 833.895,300.457 830,321.5C 822.425,343.55 806.925,353.384 783.5,351C 777.784,349.309 772.451,346.809 767.5,343.5C 759.565,349.702 754.398,357.702 752,367.5C 751.5,394.165 751.333,420.831 751.5,447.5C 775.502,447.667 799.502,447.5 823.5,447C 839.085,429.874 857.085,426.874 877.5,438C 897.835,454.593 901.002,474.093 887,496.5C 871.248,512.652 853.414,515.485 833.5,505C 829.868,502.37 826.535,499.37 823.5,496C 756.834,495.5 690.167,495.333 623.5,495.5C 623.5,532.833 623.5,570.167 623.5,607.5C 647.502,607.667 671.502,607.5 695.5,607C 711.085,589.874 729.085,586.874 749.5,598C 769.835,614.593 773.002,634.093 759,656.5C 741.855,673.715 723.022,675.882 702.5,663C 700.167,660.667 697.833,658.333 695.5,656C 671.502,655.5 647.502,655.333 623.5,655.5C 623.5,692.833 623.5,730.167 623.5,767.5C 682.501,767.333 741.501,767.5 800.5,768C 838.688,773.306 863.854,794.139 876,830.5C 878.171,838.695 879.504,847.028 880,855.5C 897.978,872.514 900.311,891.514 887,912.5C 871.248,928.652 853.414,931.485 833.5,921C 819.703,910.628 813.869,896.794 816,879.5C 818.467,869.895 823.467,861.895 831,855.5C 830.815,838.986 823.315,826.819 808.5,819C 803.968,817.378 799.301,816.378 794.5,816C 736.83,815.167 679.164,815.333 621.5,816.5C 606.255,884.579 564.588,926.079 496.5,941C 438.142,948.883 389.976,930.383 352,885.5C 330.456,856.536 319.456,823.869 319,787.5C 266.308,745.773 246.641,691.773 260,625.5C 267.59,599.975 280.09,577.308 297.5,557.5C 278.718,502.648 286.885,452.315 322,406.5C 339.262,386.863 359.928,371.863 384,361.5C 391.195,316.919 415.029,284.752 455.5,265C 466.012,260.877 476.679,257.711 487.5,255.5 Z"/></g>
<g><path style="opacity:0.004" fill="#000000" d="M 204.5,259.5 C 203.92,261.749 202.587,263.415 200.5,264.5C 201.08,262.251 202.413,260.585 204.5,259.5 Z"/></g>
<g><path style="opacity:0.004" fill="#000000" d="M 994.5,259.5 C 996.587,260.585 997.92,262.251 998.5,264.5C 996.413,263.415 995.08,261.749 994.5,259.5 Z"/></g>
<g><path style="opacity:0.004" fill="#000000" d="M 199.5,265.5 C 198.92,267.749 197.587,269.415 195.5,270.5C 196.08,268.251 197.413,266.585 199.5,265.5 Z"/></g>
<g><path style="opacity:0.004" fill="#000000" d="M 999.5,265.5 C 1001.59,266.585 1002.92,268.251 1003.5,270.5C 1001.41,269.415 1000.08,267.749 999.5,265.5 Z"/></g>
<g><path style="opacity:0.004" fill="#000000" d="M 194.5,271.5 C 193.92,273.749 192.587,275.415 190.5,276.5C 191.08,274.251 192.413,272.585 194.5,271.5 Z"/></g>
<g><path style="opacity:0.004" fill="#000000" d="M 1004.5,271.5 C 1006.59,272.585 1007.92,274.251 1008.5,276.5C 1006.41,275.415 1005.08,273.749 1004.5,271.5 Z"/></g>
<g><path style="opacity:0.004" fill="#000000" d="M 190.5,276.5 C 190.262,278.404 189.262,279.738 187.5,280.5C 187.738,278.596 188.738,277.262 190.5,276.5 Z"/></g>
<g><path style="opacity:0.004" fill="#000000" d="M 1008.5,276.5 C 1010.26,277.262 1011.26,278.596 1011.5,280.5C 1009.74,279.738 1008.74,278.404 1008.5,276.5 Z"/></g>
<g><path style="opacity:0.005" fill="#000000" d="M 187.5,280.5 C 183.984,286.2 179.984,291.533 175.5,296.5C 178.529,290.443 182.529,285.109 187.5,280.5 Z"/></g>
<g><path style="opacity:0.005" fill="#000000" d="M 1011.5,280.5 C 1016.47,285.109 1020.47,290.443 1023.5,296.5C 1019.02,291.533 1015.02,286.2 1011.5,280.5 Z"/></g>
<g><path style="opacity:0.005" fill="#000000" d="M 175.5,296.5 C 173.938,300.392 171.605,303.725 168.5,306.5C 170.062,302.608 172.395,299.275 175.5,296.5 Z"/></g>
<g><path style="opacity:0.005" fill="#000000" d="M 1023.5,296.5 C 1026.6,299.275 1028.94,302.608 1030.5,306.5C 1027.4,303.725 1025.06,300.392 1023.5,296.5 Z"/></g>
<g><path style="opacity:1" fill="#efbf63" d="M 491.5,303.5 C 533.386,300.593 560.886,318.926 574,358.5C 575.639,409.135 575.972,459.801 575,510.5C 565.988,560.838 537.488,594.672 489.5,612C 476.285,624.909 476.285,637.909 489.5,651C 494.955,654.625 500.955,655.958 507.5,655C 533.829,647.1 556.329,633.267 575,613.5C 575.667,676.5 575.667,739.5 575,802.5C 568.568,843.926 546.068,872.759 507.5,889C 457.526,903.897 416.693,890.73 385,849.5C 377.219,837.479 372.219,824.479 370,810.5C 383.831,814.863 397.998,816.363 412.5,815C 427.935,809.294 433.769,798.461 430,782.5C 426.777,776.277 421.943,771.777 415.5,769C 371.055,768.539 337.555,749.372 315,711.5C 294.701,666.247 301.201,625.413 334.5,589C 344.396,580.804 354.563,572.97 365,565.5C 373.531,547.752 368.698,535.252 350.5,528C 347.131,527.337 343.797,527.504 340.5,528.5C 339.353,528.182 338.519,527.516 338,526.5C 329.861,477.049 346.861,439.049 389,412.5C 391.785,420.071 395.119,427.405 399,434.5C 408.286,447.78 420.12,450.613 434.5,443C 443.372,435.715 446.206,426.548 443,415.5C 422.741,377.811 428.575,344.977 460.5,317C 469.963,310.263 480.296,305.763 491.5,303.5 Z"/></g>
<g><path style="opacity:0.012" fill="#000000" d="M 168.5,306.5 C 158.438,322.947 148.604,339.613 139,356.5C 69.9238,493.497 60.5904,634.497 111,779.5C 168.5,927.667 271.333,1030.5 419.5,1088C 564.503,1138.41 705.503,1129.08 842.5,1060C 968.833,990.641 1054,887.141 1098,749.5C 1141.77,591.476 1119.27,443.809 1030.5,306.5C 1079.36,377.217 1108.86,455.551 1119,541.5C 1134.02,700.428 1088.69,839.095 983,957.5C 859.267,1084.53 708.767,1138.7 531.5,1120C 374.144,1096.3 250.977,1019.13 162,888.5C 78.9606,756.574 56.6273,614.907 95,463.5C 110.427,406.66 134.927,354.327 168.5,306.5 Z"/></g>
</svg>
